<?xml version="1.0" encoding="utf-8"?><!-- Uploaded to: SVG Repo, www.svgrepo.com, Generator: SVG Repo Mixer Tools -->
<svg width="800px" height="800px" viewBox="0 -0.5 25 25" fill="none" xmlns="http://www.w3.org/2000/svg">
<path d="M15.014 8.46835C14.7204 8.17619 14.2455 8.17737 13.9533 8.47099C13.6612 8.76462 13.6624 9.23949 13.956 9.53165L15.014 8.46835ZM16.971 12.5317C17.2646 12.8238 17.7395 12.8226 18.0317 12.529C18.3238 12.2354 18.3226 11.7605 18.029 11.4683L16.971 12.5317ZM18.029 12.5317C18.3226 12.2395 18.3238 11.7646 18.0317 11.471C17.7395 11.1774 17.2646 11.1762 16.971 11.4683L18.029 12.5317ZM13.956 14.4683C13.6624 14.7605 13.6612 15.2354 13.9533 15.529C14.2455 15.8226 14.7204 15.8238 15.014 15.5317L13.956 14.4683ZM17.5 12.75C17.9142 12.75 18.25 12.4142 18.25 12C18.25 11.5858 17.9142 11.25 17.5 11.25V12.75ZM3.5 11.25C3.08579 11.25 2.75 11.5858 2.75 12C2.75 12.4142 3.08579 12.75 3.5 12.75V11.25ZM13.956 9.53165L16.971 12.5317L18.029 11.4683L15.014 8.46835L13.956 9.53165ZM16.971 11.4683L13.956 14.4683L15.014 15.5317L18.029 12.5317L16.971 11.4683ZM17.5 11.25H3.5V12.75H17.5V11.25Z" fill="#000000"/>
<path d="M9.5 15C9.5 17.2091 11.2909 19 13.5 19H17.5C19.7091 19 21.5 17.2091 21.5 15V9C21.5 6.79086 19.7091 5 17.5 5H13.5C11.2909 5 9.5 6.79086 9.5 9" stroke="#000000" stroke-width="1.5" stroke-linecap="round" stroke-linejoin="round"/>
<path d="M15.014 8.46835C14.7204 8.17619 14.2455 8.17737 13.9533 8.47099C13.6612 8.76462 13.6624 9.23949 13.956 9.53165L15.014 8.46835ZM16.971 12.5317C17.2646 12.8238 17.7395 12.8226 18.0317 12.529C18.3238 12.2354 18.3226 11.7605 18.029 11.4683L16.971 12.5317ZM18.029 12.5317C18.3226 12.2395 18.3238 11.7646 18.0317 11.471C17.7395 11.1774 17.2646 11.1762 16.971 11.4683L18.029 12.5317ZM13.956 14.4683C13.6624 14.7605 13.6612 15.2354 13.9533 15.529C14.2455 15.8226 14.7204 15.8238 15.014 15.5317L13.956 14.4683ZM17.5 12.75C17.9142 12.75 18.25 12.4142 18.25 12C18.25 11.5858 17.9142 11.25 17.5 11.25V12.75ZM3.5 11.25C3.08579 11.25 2.75 11.5858 2.75 12C2.75 12.4142 3.08579 12.75 3.5 12.75V11.25ZM13.956 9.53165L16.971 12.5317L18.029 11.4683L15.014 8.46835L13.956 9.53165ZM16.971 11.4683L13.956 14.4683L15.014 15.5317L18.029 12.5317L16.971 11.4683ZM17.5 11.25H3.5V12.75H17.5V11.25Z" fill="#000000"/>
<path d="M9.5 15C9.5 17.2091 11.2909 19 13.5 19H17.5C19.7091 19 21.5 17.2091 21.5 15V9C21.5 6.79086 19.7091 5 17.5 5H13.5C11.2909 5 9.5 6.79086 9.5 9" stroke="#000000" stroke-width="1.5" stroke-linecap="round" stroke-linejoin="round"/>
</svg>