<?xml version="1.0" encoding="utf-8"?>

<!DOCTYPE svg PUBLIC "-//W3C//DTD SVG 1.1//EN" "http://www.w3.org/Graphics/SVG/1.1/DTD/svg11.dtd">
<!-- Uploaded to: SVG Repo, www.svgrepo.com, Generator: SVG Repo Mixer Tools -->
<svg height="800px" width="800px" version="1.1" id="_x32_" xmlns="http://www.w3.org/2000/svg" xmlns:xlink="http://www.w3.org/1999/xlink" 
	 viewBox="0 0 512 512"  xml:space="preserve">
<style type="text/css">
	.st0{fill:#000000;}
</style>
<g>
	<path class="st0" d="M450.096,259.167c4.299-9.593,6.245-18.721,6.24-26.773c0-6.584-1.263-12.454-3.621-17.691
		c-2.378-5.228-5.846-9.9-10.88-14.106c-5.256-4.383-10.131-7.178-14.603-8.896c-4.476-1.727-8.562-2.434-12.555-2.434
		c-3.566,0-7.091,0.576-10.652,1.718c-3.566,1.142-7.169,2.87-10.716,5.154c-7.104,4.56-13.948,11.432-19.433,19.474
		c-1.016,1.477-1.862,3.074-2.785,4.626l13.098,101.474c11.52-5.776,21.633-12.249,30.339-19.13
		C431.908,288.874,443.66,273.551,450.096,259.167z M394.85,300.316l-9.965-77.218c4.514-6.604,10.049-12.185,15.616-15.76
		c2.568-1.653,5.112-2.879,7.588-3.678c2.275-0.724,4.425-1.077,6.589-1.077c2.572,0,5.037,0.483,7.764,1.541
		c3.491,1.338,7.145,3.585,10.869,6.696c3.316,2.768,5.632,5.758,7.285,9.389c1.625,3.622,2.429,7.615,2.429,12.184
		c0.005,6.538-1.751,13.912-5.075,21.332c-4.239,9.472-13.172,23.819-31.668,38.399C402.683,294.975,398.862,297.707,394.85,300.316
		z"/>
	<path class="st0" d="M503.438,191.783c-5.808-12.9-14.788-24.637-25.969-33.952c-9.514-7.922-19.66-13.995-30.154-18.054
		c-10.592-4.104-21.573-6.193-32.638-6.193c-12.231,0-24.75,2.664-36.506,7.726l-3.933-30.461H174.001l-13.317,103.62
		l-59.346-75.648c-8.414-10.717-21.058-16.874-34.686-16.874c-3.004,0-6.008,0.316-8.924,0.92l-41.942,8.702
		c-7.416,1.522-13.22,7.029-15.142,14.366c-1.909,7.234,0.515,15.081,6.157,19.976l29.108,25.38l108.147,151.641l-3.445,26.745
		c-1.031,7.95,1.417,15.964,6.714,21.991c5.312,6.027,12.95,9.482,20.955,9.482h220.881c5.716,0,11.158-2.48,14.905-6.77
		c3.743-4.226,5.47-9.899,4.746-15.564l-0.873-6.798c24.568-12.128,45.625-27.395,62.614-45.392
		c13.053-13.874,23.258-28.91,30.33-44.678c7.369-16.428,11.107-33.097,11.116-49.544
		C512.014,218.046,509.136,204.376,503.438,191.783z M387.903,380.217H168.28c-2.006,0-3.914-0.863-5.242-2.358
		c-1.323-1.514-1.936-3.519-1.68-5.516l4.504-34.881L51.455,177.231L22.215,151.6l39.756-8.247c1.509-0.316,3.088-0.474,4.68-0.474
		c7.164,0,13.809,3.223,18.225,8.859l90.187,114.95l17.342-134.906h163.44l5.785,44.808l5.275-4.207
		c3.743-2.972,7.629-5.618,11.553-7.865c11.432-6.547,23.959-10.002,36.218-10.002c8.482,0,16.924,1.607,25.092,4.774
		c8.382,3.241,16.563,8.163,24.313,14.617c8.753,7.29,15.769,16.446,20.295,26.494c4.458,9.854,6.715,20.616,6.705,31.992
		c-0.01,13.475-3.134,27.266-9.282,40.982c-6.124,13.66-15.03,26.745-26.47,38.892c-17.692,18.76-40.402,34.24-67.491,46.016
		l-2.619,1.142L387.903,380.217z"/>
</g>
</svg>